# xmcd
#
# Track frame offsets: 
#        150
#        11972
#        24951
#        37343
#        50769
#        63805
#        77354
#        91050
#        103135
#        116282
#        128380
#        140850
#        154761
#        167047
#        179274
#        192729
#        204274
#        216805
#
# Disc length: 3059 seconds
#
# Revision: 1
# Processed by: cddbd v1.5.2PL0 Copyright (c) Steve Scherf et al.
# Submitted via: ExactAudioCopy v0.95b2
#
DISCID=f40bf112
DTITLE=Arthur Crudup - The Essential Arthur Crudup Disc 1
DYEAR=2001
DGENRE=Blues
TTITLE0=Mean Old 'Frisco Blues
TTITLE1=Give Me A 32-20
TTITLE2=Gonna Be Some Changes Made
TTITLE3=Rock Me Mama
TTITLE4=Too Much Competition
TTITLE5=I Want My Lovin'
TTITLE6=I'm In The Mood
TTITLE7=Going Back To Georgia
TTITLE8=That's All Right
TTITLE9=Mr. So And So
TTITLE10=Tired Of Worry
TTITLE11=My Baby Boogies All The Time
TTITLE12=Open Your Book
TTITLE13=Help Me To Bear This Heavy Load
TTITLE14=You Got To Reap
TTITLE15=Keep Your Arms Around Me
TTITLE16=Tears In My Eyes
TTITLE17=I Don't Know It
EXTD=william hale
EXTT0=
EXTT1=
EXTT2=
EXTT3=
EXTT4=
EXTT5=
EXTT6=
EXTT7=
EXTT8=
EXTT9=
EXTT10=
EXTT11=
EXTT12=
EXTT13=
EXTT14=
EXTT15=
EXTT16=
EXTT17=
PLAYORDER=
